<svg width="38" height="49" fill="none" xmlns="http://www.w3.org/2000/svg"><mask id="a" fill="#fff"><path d="M36.974 22.657a5.28 5.28 0 0 0-.479-3.271 5.264 5.264 0 0 0-1.084-6.18 5.277 5.277 0 0 0-.662-3.239 5.236 5.236 0 0 0-2.457-2.196 5.261 5.261 0 0 0-1.724-2.815 5.211 5.211 0 0 0-3.057-1.218 5.198 5.198 0 0 0-5.864-2.146 5.208 5.208 0 0 0-3.12-1.043 5.209 5.209 0 0 0-3.12 1.042 5.2 5.2 0 0 0-5.865 2.147 5.213 5.213 0 0 0-3.056 1.218A5.261 5.261 0 0 0 4.762 7.77a5.236 5.236 0 0 0-2.458 2.196 5.28 5.28 0 0 0-.662 3.239 5.263 5.263 0 0 0-1.084 6.18 5.263 5.263 0 0 0 1.084 6.18 5.28 5.28 0 0 0 .662 3.238A5.237 5.237 0 0 0 4.762 31c.174.742.508 1.438.975 2.037l-4.12 8.67a1.421 1.421 0 0 0 .17 1.493c.337.423.884.616 1.41.496l6.206-1.415 2.804 5.745c.236.484.726.79 1.262.79h.008a1.406 1.406 0 0 0 1.261-.804l3.788-7.972 3.79 7.972a1.4 1.4 0 0 0 1.26.804h.008c.536 0 1.026-.306 1.263-.79l2.803-5.745 6.206 1.415a1.402 1.402 0 0 0 1.41-.496 1.42 1.42 0 0 0 .17-1.493l-4.12-8.67A5.275 5.275 0 0 0 32.291 31a5.234 5.234 0 0 0 2.458-2.196 5.283 5.283 0 0 0 .663-3.238 5.265 5.265 0 0 0 1.562-2.91zm-3.243-2.401a2.426 2.426 0 0 1-.62 3.541 1.418 1.418 0 0 0-.593 1.636c.21.651.136 1.365-.204 1.957a2.41 2.41 0 0 1-1.584 1.156 1.412 1.412 0 0 0-1.113 1.334 2.43 2.43 0 0 1-.857 1.769 2.4 2.4 0 0 1-1.882.542 1.405 1.405 0 0 0-1.499.87 2.398 2.398 0 0 1-3.36 1.23 1.4 1.4 0 0 0-1.705.302 2.405 2.405 0 0 1-1.788.801c-.68 0-1.331-.292-1.787-.8a1.401 1.401 0 0 0-1.705-.303 2.398 2.398 0 0 1-3.36-1.23 1.405 1.405 0 0 0-1.499-.87 2.401 2.401 0 0 1-1.882-.542 2.43 2.43 0 0 1-.857-1.77 1.412 1.412 0 0 0-1.113-1.333A2.412 2.412 0 0 1 4.74 27.39a2.438 2.438 0 0 1-.204-1.957 1.418 1.418 0 0 0-.592-1.636 2.424 2.424 0 0 1-.62-3.541 1.42 1.42 0 0 0 0-1.74 2.424 2.424 0 0 1 .62-3.541 1.418 1.418 0 0 0 .592-1.636 2.438 2.438 0 0 1 .204-1.957 2.411 2.411 0 0 1 1.584-1.157 1.412 1.412 0 0 0 1.113-1.333 2.43 2.43 0 0 1 .857-1.77 2.401 2.401 0 0 1 1.882-.541 1.405 1.405 0 0 0 1.499-.871 2.397 2.397 0 0 1 3.36-1.23 1.4 1.4 0 0 0 1.705-.302 2.405 2.405 0 0 1 1.787-.8c.681 0 1.332.291 1.788.8a1.4 1.4 0 0 0 1.705.302 2.4 2.4 0 0 1 3.36 1.23c.242.602.86.96 1.5.87a2.402 2.402 0 0 1 1.88.543c.522.44.834 1.084.858 1.769a1.412 1.412 0 0 0 1.113 1.333 2.41 2.41 0 0 1 1.584 1.157c.34.592.414 1.305.204 1.957-.2.617.045 1.292.592 1.636a2.425 2.425 0 0 1 .62 3.54 1.42 1.42 0 0 0 0 1.741zm-6.543 19.02a1.404 1.404 0 0 0-1.573.756L23.6 44.159l-3.022-6.36c.378-.163.737-.37 1.068-.619a5.2 5.2 0 0 0 5.864-2.146 5.21 5.21 0 0 0 1.49-.31l2.645 5.569-4.457-1.017zm-15.75.756a1.406 1.406 0 0 0-1.573-.756l-4.458 1.016 2.646-5.568c.478.175.98.28 1.49.31a5.2 5.2 0 0 0 5.864 2.146c.33.248.69.456 1.068.618l-3.023 6.36-2.014-4.126z"/></mask><path d="M36.974 22.657a5.28 5.28 0 0 0-.479-3.271 5.264 5.264 0 0 0-1.084-6.18 5.277 5.277 0 0 0-.662-3.239 5.236 5.236 0 0 0-2.457-2.196 5.261 5.261 0 0 0-1.724-2.815 5.211 5.211 0 0 0-3.057-1.218 5.198 5.198 0 0 0-5.864-2.146 5.208 5.208 0 0 0-3.12-1.043 5.209 5.209 0 0 0-3.12 1.042 5.2 5.2 0 0 0-5.865 2.147 5.213 5.213 0 0 0-3.056 1.218A5.261 5.261 0 0 0 4.762 7.77a5.236 5.236 0 0 0-2.458 2.196 5.28 5.28 0 0 0-.662 3.239 5.263 5.263 0 0 0-1.084 6.18 5.263 5.263 0 0 0 1.084 6.18 5.28 5.28 0 0 0 .662 3.238A5.237 5.237 0 0 0 4.762 31c.174.742.508 1.438.975 2.037l-4.12 8.67a1.421 1.421 0 0 0 .17 1.493c.337.423.884.616 1.41.496l6.206-1.415 2.804 5.745c.236.484.726.79 1.262.79h.008a1.406 1.406 0 0 0 1.261-.804l3.788-7.972 3.79 7.972a1.4 1.4 0 0 0 1.26.804h.008c.536 0 1.026-.306 1.263-.79l2.803-5.745 6.206 1.415a1.402 1.402 0 0 0 1.41-.496 1.42 1.42 0 0 0 .17-1.493l-4.12-8.67A5.275 5.275 0 0 0 32.291 31a5.234 5.234 0 0 0 2.458-2.196 5.283 5.283 0 0 0 .663-3.238 5.265 5.265 0 0 0 1.562-2.91zm-3.243-2.401a2.426 2.426 0 0 1-.62 3.541 1.418 1.418 0 0 0-.593 1.636c.21.651.136 1.365-.204 1.957a2.41 2.41 0 0 1-1.584 1.156 1.412 1.412 0 0 0-1.113 1.334 2.43 2.43 0 0 1-.857 1.769 2.4 2.4 0 0 1-1.882.542 1.405 1.405 0 0 0-1.499.87 2.398 2.398 0 0 1-3.36 1.23 1.4 1.4 0 0 0-1.705.302 2.405 2.405 0 0 1-1.788.801c-.68 0-1.331-.292-1.787-.8a1.401 1.401 0 0 0-1.705-.303 2.398 2.398 0 0 1-3.36-1.23 1.405 1.405 0 0 0-1.499-.87 2.401 2.401 0 0 1-1.882-.542 2.43 2.43 0 0 1-.857-1.77 1.412 1.412 0 0 0-1.113-1.333A2.412 2.412 0 0 1 4.74 27.39a2.438 2.438 0 0 1-.204-1.957 1.418 1.418 0 0 0-.592-1.636 2.424 2.424 0 0 1-.62-3.541 1.42 1.42 0 0 0 0-1.74 2.424 2.424 0 0 1 .62-3.541 1.418 1.418 0 0 0 .592-1.636 2.438 2.438 0 0 1 .204-1.957 2.411 2.411 0 0 1 1.584-1.157 1.412 1.412 0 0 0 1.113-1.333 2.43 2.43 0 0 1 .857-1.77 2.401 2.401 0 0 1 1.882-.541 1.405 1.405 0 0 0 1.499-.871 2.397 2.397 0 0 1 3.36-1.23 1.4 1.4 0 0 0 1.705-.302 2.405 2.405 0 0 1 1.787-.8c.681 0 1.332.291 1.788.8a1.4 1.4 0 0 0 1.705.302 2.4 2.4 0 0 1 3.36 1.23c.242.602.86.96 1.5.87a2.402 2.402 0 0 1 1.88.543c.522.44.834 1.084.858 1.769a1.412 1.412 0 0 0 1.113 1.333 2.41 2.41 0 0 1 1.584 1.157c.34.592.414 1.305.204 1.957-.2.617.045 1.292.592 1.636a2.425 2.425 0 0 1 .62 3.54 1.42 1.42 0 0 0 0 1.741zm-6.543 19.02a1.404 1.404 0 0 0-1.573.756L23.6 44.159l-3.022-6.36c.378-.163.737-.37 1.068-.619a5.2 5.2 0 0 0 5.864-2.146 5.21 5.21 0 0 0 1.49-.31l2.645 5.569-4.457-1.017zm-15.75.756a1.406 1.406 0 0 0-1.573-.756l-4.458 1.016 2.646-5.568c.478.175.98.28 1.49.31a5.2 5.2 0 0 0 5.864 2.146c.33.248.69.456 1.068.618l-3.023 6.36-2.014-4.126z" fill="#005FEC" stroke="#fff" mask="url(#a)"/><path d="m16.922 22.646.178.178.177-.178 6.958-6.997a1.662 1.662 0 0 1 2.359 0c.652.656.652 1.72 0 2.376l-8.315 8.362a1.664 1.664 0 0 1-2.359 0l-5.18-5.21a1.686 1.686 0 0 1 0-2.376 1.66 1.66 0 0 1 2.358 0l3.824 3.845zm.001-.354-3.647-3.667 3.647 3.667z" fill="#00ECD0" stroke="#fff" stroke-width=".5"/></svg>