<svg width="48" height="49" fill="none" xmlns="http://www.w3.org/2000/svg"><path d="m19.93 28.721 5.445-16.427a1.163 1.163 0 0 0-.73-1.47 1.154 1.154 0 0 0-1.462.735l-5.445 16.428a1.163 1.163 0 0 0 1.096 1.529c.484 0 .934-.308 1.096-.795zm8.161-5.096c1.911 0 3.466-1.563 3.466-3.485 0-1.921-1.555-3.485-3.466-3.485-1.91 0-3.465 1.564-3.465 3.485 0 1.922 1.554 3.485 3.465 3.485zm0-4.646a1.16 1.16 0 0 1 1.155 1.161 1.16 1.16 0 0 1-1.155 1.162 1.16 1.16 0 0 1-1.155-1.162c0-.64.518-1.161 1.155-1.161zm-13.069-2.324c-1.91 0-3.465 1.564-3.465 3.485 0 1.922 1.554 3.485 3.465 3.485 1.911 0 3.466-1.563 3.466-3.485 0-1.921-1.555-3.485-3.466-3.485zm0 4.647a1.16 1.16 0 0 1-1.155-1.162c0-.64.518-1.161 1.155-1.161a1.16 1.16 0 0 1 1.155 1.161 1.16 1.16 0 0 1-1.155 1.162z" fill="#00ECD0"/><path d="m47.719 17.634-4.904-6.575.191-1.346a1.419 1.419 0 0 0-.398-1.2l-2.983-3 2.983-3a1.42 1.42 0 0 0 0-2 1.4 1.4 0 0 0-1.988 0l-2.983 3-2.983-3a1.403 1.403 0 0 0-1.194-.4l-13.92 2a1.409 1.409 0 0 0-.796.4L1.508 19.845a5.211 5.211 0 0 0 0 7.333l14.584 14.665c.298.3.625.555.97.766v.573c0 2.859 2.314 5.185 5.157 5.185h20.625c2.843 0 5.156-2.326 5.156-5.185v-24.7a1.42 1.42 0 0 0-.281-.848zM3.497 25.178a2.369 2.369 0 0 1 0-3.333L20.4 4.846l12.76-1.833 2.487 2.5-1.989 2-.994-1a1.4 1.4 0 0 0-1.989 0 1.42 1.42 0 0 0 0 2l3.978 4a1.398 1.398 0 0 0 1.988 0 1.42 1.42 0 0 0 0-2l-.994-1 1.988-2 2.486 2.5L38.3 22.845 21.395 39.843a2.322 2.322 0 0 1-1.657.69 2.323 2.323 0 0 1-1.657-.69L3.497 25.178zm41.69 18.004c0 1.3-1.05 2.357-2.343 2.357H22.219a2.352 2.352 0 0 1-2.337-2.183 5.123 5.123 0 0 0 3.502-1.513L40.62 24.511c.215-.216.354-.497.397-.8l1.235-8.692 2.935 3.935v24.228z" fill="#005FEC"/></svg>