<svg width="48" height="49" fill="none" xmlns="http://www.w3.org/2000/svg"><path d="M39.874 30.143a19.401 19.401 0 0 0 3.176-10.66c0-10.72-8.673-19.44-19.332-19.44-10.66 0-19.331 8.72-19.331 19.44 0 3.933 1.17 7.597 3.175 10.66L0 41.233l8.652-1.623 1.614 8.7 7.13-10.457a19.151 19.151 0 0 0 6.322 1.068c2.213 0 4.34-.377 6.321-1.068L37.17 48.31l1.614-8.7 8.652 1.621-7.562-11.089zm-28.08 10.895-.88-4.746-4.718.885 3.184-4.67a19.473 19.473 0 0 0 5.373 4.193l-2.958 4.338zM7.217 19.482c0-9.15 7.403-16.594 16.502-16.594 9.1 0 16.503 7.444 16.503 16.594 0 9.15-7.403 16.595-16.503 16.595-9.1 0-16.502-7.445-16.502-16.595zm29.305 16.81-.88 4.746-2.958-4.338a19.473 19.473 0 0 0 5.373-4.194l3.185 4.67-4.72-.884z" fill="#005FEC"/><path d="m20.272 23.08-4.6-4.624-2 2.011 6.6 6.637 13.492-13.567-2-2.012-11.492 11.556z" fill="#00ECD0"/></svg>