<svg width="49" height="16" fill="none" xmlns="http://www.w3.org/2000/svg"><g clip-path="url(#a)"><path d="M20.998 8.205c0 2.221-1.763 3.858-3.927 3.858-2.163 0-3.926-1.637-3.926-3.858 0-2.236 1.763-3.857 3.926-3.857 2.164 0 3.927 1.62 3.927 3.857zm-1.72 0c0-1.388-1.02-2.337-2.207-2.337-1.186 0-2.207.95-2.207 2.337 0 1.374 1.021 2.338 2.207 2.338s2.208-.966 2.208-2.338z" fill="#EA4335"/><path d="M29.468 8.205c0 2.221-1.762 3.858-3.926 3.858s-3.927-1.637-3.927-3.858c0-2.235 1.763-3.857 3.927-3.857 2.163 0 3.926 1.62 3.926 3.857zm-1.718 0c0-1.388-1.022-2.337-2.208-2.337-1.186 0-2.208.95-2.208 2.337 0 1.374 1.022 2.338 2.208 2.338 1.186 0 2.208-.966 2.208-2.338z" fill="#FBBC05"/><path d="M37.586 4.58v6.926c0 2.849-1.705 4.012-3.72 4.012-1.897 0-3.039-1.25-3.47-2.273l1.497-.614c.267.628.92 1.369 1.971 1.369 1.29 0 2.09-.784 2.09-2.26v-.556h-.06c-.385.468-1.126.877-2.061.877-1.957 0-3.75-1.68-3.75-3.842 0-2.177 1.793-3.871 3.75-3.871.933 0 1.674.409 2.06.862h.06v-.627h1.633V4.58zm-1.51 3.64c0-1.36-.92-2.352-2.09-2.352-1.186 0-2.18.993-2.18 2.351 0 1.344.994 2.324 2.18 2.324 1.17 0 2.09-.98 2.09-2.324z" fill="#4285F4"/><path d="M40.277.522v11.304h-1.676V.522h1.676z" fill="#34A853"/><path d="m46.81 9.475 1.334.876c-.43.628-1.468 1.71-3.26 1.71-2.224 0-3.885-1.694-3.885-3.858 0-2.293 1.675-3.857 3.692-3.857 2.031 0 3.024 1.593 3.35 2.454l.177.438-5.232 2.136c.4.774 1.024 1.169 1.897 1.169.875 0 1.482-.425 1.927-1.068zm-4.106-1.388L46.2 6.656c-.192-.482-.77-.818-1.452-.818-.873 0-2.09.76-2.045 2.249z" fill="#EA4335"/><path d="M6.799 7.202V5.565h5.596c.055.285.083.623.083.988 0 1.228-.34 2.746-1.438 3.828-1.068 1.095-2.432 1.68-4.24 1.68-3.349 0-6.165-2.689-6.165-5.99 0-3.3 2.816-5.99 6.166-5.99 1.853 0 3.173.717 4.164 1.651L9.794 2.887a4.265 4.265 0 0 0-2.995-1.169A4.328 4.328 0 0 0 2.44 6.071a4.327 4.327 0 0 0 4.36 4.353c1.586 0 2.49-.627 3.069-1.198.47-.463.778-1.123.9-2.026l-3.97.002z" fill="#4285F4"/></g><defs><clipPath id="a"><path fill="#fff" transform="translate(.571)" d="M0 0h48v16H0z"/></clipPath></defs></svg>