<svg width="48" height="14" fill="none" xmlns="http://www.w3.org/2000/svg"><g clip-path="url(#a)"><path d="M5.198 2.413v3.869H1.673V2.413H0v9.234h1.673V7.905h3.525v3.742h1.674V2.413H5.198zm7.029 6.249c0 .37-.146.725-.405.987a1.379 1.379 0 0 1-1.958 0 1.401 1.401 0 0 1-.406-.987V4.707H7.871v3.955c0 .794.313 1.555.87 2.116a2.957 2.957 0 0 0 2.099.877c.787 0 1.543-.315 2.1-.877.556-.56.869-1.322.869-2.116V4.707h-1.582v3.955zm11.761-3.547c0-.811.532-1.068 1.115-1.068.47 0 1.09.36 1.496.797l1.04-1.234c-.52-.708-1.572-1.197-2.434-1.197-1.721 0-2.967 1.017-2.967 2.702 0 3.126 3.791 2.134 3.791 3.884 0 .54-.52 1.016-1.115 1.016-.939 0-1.243-.463-1.674-.952l-1.154 1.21c.738.912 1.648 1.376 2.739 1.376 1.636 0 2.951-1.029 2.951-2.637 0-3.471-3.79-2.392-3.79-3.897m23.456 5.057c-.938 0-1.205-.409-1.205-1.035V6.364h1.458V4.96h-1.458V3.106l-1.61.728V9.48c0 1.445.99 2.173 2.346 2.173a3.21 3.21 0 0 0 .634-.051L48 10.146c-.177.012-.38.025-.558.025M18.269 4.753c-.786 0-1.335.23-1.865.755v-3.04h-1.59v5.634c0 2.11 1.513 3.554 3.212 3.554 1.886 0 3.545-1.47 3.545-3.45 0-1.956-1.527-3.452-3.302-3.452zm-.01 5.29c-.357 0-.705-.106-1.002-.306a1.832 1.832 0 0 1-.273-2.797 1.8 1.8 0 0 1 1.965-.394c.33.137.612.37.81.67a1.828 1.828 0 0 1-.224 2.295 1.796 1.796 0 0 1-1.276.532zM35.53 8.121c0-1.983-1.654-3.45-3.544-3.45-1.7 0-3.212 1.444-3.212 3.553v5.637h1.59v-3.043c.53.524 1.079.754 1.864.754 1.776 0 3.302-1.495 3.302-3.45zm-1.504-.02c0 .36-.106.711-.304 1.01-.199.3-.48.532-.81.67a1.79 1.79 0 0 1-1.966-.394 1.822 1.822 0 0 1-.39-1.981 1.8 1.8 0 0 1 .664-.816 1.794 1.794 0 0 1 2.277.226c.339.34.529.803.529 1.285z" fill="#33475B"/><path d="M40.667 4.593v-1.61a1.234 1.234 0 0 0 .71-1.117v-.037c0-.329-.13-.644-.361-.877a1.225 1.225 0 0 0-.87-.363h-.037c-.326 0-.639.13-.87.363-.23.233-.36.548-.36.877v.037a1.247 1.247 0 0 0 .71 1.117v1.61a3.47 3.47 0 0 0-1.657.735l-4.38-3.439a1.36 1.36 0 0 0 .05-.348c0-.276-.08-.546-.232-.776a1.388 1.388 0 0 0-1.422-.596 1.382 1.382 0 0 0-.71.38 1.4 1.4 0 0 0-.303 1.522c.105.256.282.474.51.628a1.363 1.363 0 0 0 1.452.05L37.21 6.13a3.542 3.542 0 0 0 .053 3.967l-1.311 1.322a1.121 1.121 0 0 0-.328-.054 1.132 1.132 0 0 0-1.051.709 1.155 1.155 0 0 0 .247 1.25 1.135 1.135 0 0 0 1.89-1.141l1.297-1.308a3.486 3.486 0 0 0 3.02.617 3.49 3.49 0 0 0 1.4-.742c.404-.351.723-.791.933-1.286a3.552 3.552 0 0 0-.162-3.101 3.517 3.517 0 0 0-1.062-1.182 3.484 3.484 0 0 0-1.47-.589zm-.538 5.294c-.355 0-.702-.107-.997-.306a1.823 1.823 0 0 1-.27-2.784 1.791 1.791 0 0 1 1.956-.392c.328.137.608.369.805.666a1.82 1.82 0 0 1-.223 2.285c-.336.34-.793.53-1.27.53" fill="#FF7A59"/></g><defs><clipPath id="a"><path fill="#fff" transform="translate(0 .143)" d="M0 0h48v13.714H0z"/></clipPath></defs></svg>