<svg width="70" height="16" fill="none" xmlns="http://www.w3.org/2000/svg"><g clip-path="url(#a)"><path d="m24.75 9.129-.415 1.174H24.3a8.343 8.343 0 0 0-.404-1.151L21.67 3.566h-2.182v8.903h1.443V6.975c0-.346 0-.737-.011-1.22-.012-.243-.035-.427-.047-.565h.035c.07.345.15.599.208.76l2.678 6.496h1.015l2.655-6.554c.058-.15.115-.449.173-.702h.035a82.03 82.03 0 0 0-.07 1.6v5.644h1.536V3.543h-2.101L24.75 9.129zm5.84-3.075h1.501v6.38h-1.5v-6.38zm.763-2.695a.9.9 0 0 0-.635.253.816.816 0 0 0-.266.622c0 .242.093.449.266.61a.89.89 0 0 0 .635.242.922.922 0 0 0 .634-.242.81.81 0 0 0 .266-.61.853.853 0 0 0-.266-.622.843.843 0 0 0-.634-.253zm6.06 2.637a4.194 4.194 0 0 0-.843-.092c-.681 0-1.305.15-1.824.449-.52.3-.935.714-1.2 1.232-.277.53-.416 1.14-.416 1.843 0 .61.139 1.152.404 1.647.266.484.635.875 1.131 1.14.473.265 1.027.403 1.65.403.716 0 1.328-.15 1.813-.426l.011-.011v-1.382l-.057.046c-.22.161-.474.3-.727.38a2.23 2.23 0 0 1-.716.138c-.6 0-1.074-.173-1.408-.553-.346-.368-.52-.875-.52-1.509 0-.656.174-1.174.531-1.554.358-.38.831-.576 1.408-.576.485 0 .982.161 1.432.483l.057.047V6.238l-.011-.012c-.196-.08-.416-.172-.716-.23zm4.95-.046c-.369 0-.715.115-1.015.357-.254.207-.427.507-.577.864h-.012V6.054h-1.5v6.38h1.5v-3.26c0-.552.116-1.013.37-1.347.254-.345.577-.518.97-.518.138 0 .276.034.45.058.161.046.276.092.357.15l.058.045V6.065l-.035-.011c-.104-.07-.311-.104-.565-.104zm4.087-.035c-1.05 0-1.893.311-2.482.922-.6.61-.889 1.45-.889 2.51 0 .991.3 1.797.878 2.385.577.575 1.361.875 2.343.875 1.027 0 1.846-.311 2.435-.933.6-.622.889-1.451.889-2.476 0-1.014-.277-1.82-.843-2.407-.542-.588-1.339-.876-2.331-.876zm1.2 4.907c-.277.357-.716.53-1.258.53-.543 0-.981-.173-1.293-.553-.311-.357-.461-.876-.461-1.532 0-.68.161-1.198.461-1.566.312-.369.739-.553 1.281-.553.531 0 .947.172 1.247.53.3.357.462.875.462 1.554-.023.691-.15 1.233-.439 1.59zm5.32-2.12c-.472-.195-.772-.345-.91-.472-.116-.115-.174-.276-.174-.483 0-.173.07-.346.242-.461.173-.115.37-.173.658-.173.254 0 .52.046.774.115.253.07.484.173.669.311l.058.046V6.18l-.035-.011a4.172 4.172 0 0 0-.68-.196 4.636 4.636 0 0 0-.74-.07c-.715 0-1.304.174-1.766.554-.461.357-.68.84-.68 1.405 0 .3.046.564.15.783.103.219.253.426.461.599.208.161.508.345.924.518.346.15.611.265.773.357.161.092.265.196.346.277a.654.654 0 0 1 .093.357c0 .426-.324.633-.982.633-.254 0-.519-.046-.83-.15a3.218 3.218 0 0 1-.843-.426l-.058-.046v1.463l.035.011c.22.104.485.173.808.254.323.057.611.103.865.103.774 0 1.408-.172 1.859-.553.461-.368.704-.84.704-1.45 0-.427-.116-.807-.37-1.095a4.684 4.684 0 0 0-1.35-.794zm5.68-2.787c-1.05 0-1.893.311-2.482.922-.588.61-.889 1.45-.889 2.51 0 .991.3 1.797.878 2.385.577.575 1.362.875 2.343.875 1.027 0 1.846-.311 2.435-.933.6-.622.889-1.451.889-2.476 0-1.014-.277-1.82-.843-2.407-.542-.588-1.339-.876-2.331-.876zm1.189 4.907c-.277.357-.716.53-1.259.53-.554 0-.98-.173-1.292-.553-.312-.357-.462-.876-.462-1.532 0-.68.162-1.198.462-1.566.311-.369.738-.553 1.28-.553.52 0 .947.172 1.247.53.3.357.462.875.462 1.554 0 .691-.15 1.233-.438 1.59zm10.007-3.536V6.054h-1.513v-1.89l-.046.012-1.43.426-.035.012v1.44h-2.263v-.807c0-.368.093-.656.254-.84.162-.185.404-.277.704-.277.208 0 .427.046.67.15l.057.034V3.013l-.034-.011a2.69 2.69 0 0 0-.843-.116c-.45 0-.842.104-1.2.277a2 2 0 0 0-.82.817 2.36 2.36 0 0 0-.3 1.187v.887h-1.05v1.22h1.05v5.16h1.512V7.286h2.263v3.282c0 1.348.634 2.027 1.904 2.027.208 0 .427-.034.635-.069.219-.046.38-.103.473-.15l.011-.011v-1.232l-.057.046a.976.976 0 0 1-.312.138 1.08 1.08 0 0 1-.3.046c-.3 0-.508-.07-.658-.242-.138-.161-.208-.426-.208-.818V7.286h1.535z" fill="#737373"/><path d="M.143.571h7.075v7.06H.143V.571z" fill="#F25022"/><path d="M7.957.571h7.075v7.06H7.957V.571z" fill="#7FBA00"/><path d="M.143 8.369h7.075v7.06H.143v-7.06z" fill="#00A4EF"/><path d="M7.957 8.369h7.075v7.06H7.957v-7.06z" fill="#FFB900"/></g><defs><clipPath id="a"><path fill="#fff" transform="translate(.143 .571)" d="M0 0h69.714v14.857H0z"/></clipPath></defs></svg>