<svg width="56" height="9" fill="none" xmlns="http://www.w3.org/2000/svg"><path fill-rule="evenodd" clip-rule="evenodd" d="m8.424 3.373-2.74-.4L4.46.475a.194.194 0 0 0-.335 0L2.9 2.972l-2.74.4a.188.188 0 0 0-.104.32L2.04 5.636l-.468 2.743a.188.188 0 0 0 .074.184.186.186 0 0 0 .197.014l2.45-1.295 2.45 1.295a.186.186 0 0 0 .197-.015.188.188 0 0 0 .074-.183l-.468-2.743 1.983-1.944a.188.188 0 0 0-.104-.32zm11.644-.001-2.74-.4L16.105.476a.194.194 0 0 0-.334 0l-1.226 2.496-2.74.4a.188.188 0 0 0-.104.32l1.983 1.944-.468 2.743a.188.188 0 0 0 .074.184.186.186 0 0 0 .197.014l2.45-1.295 2.45 1.295a.186.186 0 0 0 .197-.015.188.188 0 0 0 .074-.183l-.468-2.743 1.983-1.944a.188.188 0 0 0-.104-.32zm11.644 0-2.74-.4L27.749.476a.194.194 0 0 0-.335 0l-1.225 2.496-2.74.4a.188.188 0 0 0-.104.32l1.983 1.944-.468 2.743a.188.188 0 0 0 .074.184.186.186 0 0 0 .197.014l2.45-1.295 2.45 1.295a.186.186 0 0 0 .197-.015.188.188 0 0 0 .074-.183l-.468-2.743 1.983-1.944a.188.188 0 0 0-.104-.32zm11.644 0-2.74-.4L39.393.476a.194.194 0 0 0-.335 0l-1.225 2.496-2.74.4a.188.188 0 0 0-.104.32l1.983 1.944-.468 2.743a.188.188 0 0 0 .074.184.186.186 0 0 0 .197.014l2.45-1.295 2.45 1.295a.186.186 0 0 0 .197-.015.188.188 0 0 0 .074-.183l-.468-2.743 1.983-1.944a.188.188 0 0 0-.104-.32zm11.644 0-2.74-.4L51.037.476a.194.194 0 0 0-.335 0l-1.225 2.496-2.74.4a.188.188 0 0 0-.104.32l1.983 1.944-.468 2.743a.188.188 0 0 0 .074.184.186.186 0 0 0 .197.014l2.45-1.295 2.45 1.295a.186.186 0 0 0 .197-.015.188.188 0 0 0 .074-.183l-.468-2.743 1.983-1.944a.188.188 0 0 0-.104-.32z" fill="#F5A623"/></svg>